<?xml version="1.0" encoding="UTF-8"?>
<svg width="187px" height="51px" viewBox="0 0 187 51" version="1.1" xmlns="http://www.w3.org/2000/svg" xmlns:xlink="http://www.w3.org/1999/xlink">
    <!-- Generator: Sketch 50 (54983) - http://www.bohemiancoding.com/sketch -->
    <title>Lex</title>
    <desc>Created with Sketch.</desc>
    <defs></defs>
    <g id="Page-1" stroke="none" stroke-width="1" fill="none" fill-rule="evenodd">
        <g id="Lex" fill="#FFFFFF">
            <path d="M61.6914062,51 L61.6914062,40.9453125 L119.488281,40.9453125 L119.488281,51 L61.6914062,51 Z M61.6914062,10.78125 L61.6914062,0.76171875 L119.488281,0.76171875 L119.488281,10.78125 L61.6914062,10.78125 Z M61.6914062,30.890625 L61.6914062,20.8359375 L119.488281,20.8359375 L119.488281,30.890625 L61.6914062,30.890625 Z M172.925781,0.76171875 L186.566406,0.76171875 L163.539062,25.8632812 L186.566406,51 L172.925781,51 L156.71875,33.3164062 L140.511719,51 L126.871094,51 L149.898438,25.8632812 L126.871094,0.76171875 L140.511719,0.76171875 L156.71875,18.4453125 L172.925781,0.76171875 Z" id="ex"></path>
            <path d="M35.9208725,2 L49.593575,2 C29.1237536,21.344199 18.8888429,31.0162985 18.8888429,31.0162985 C14.4725899,35.3478208 12.0718991,37.7608005 13.0859701,39.6950244 C13.9231741,41.291895 14.8075883,40.9354894 20.41587,40.9354894 C20.41587,40.9354894 32.4201883,40.9354894 56.4288248,40.9354894 L56.4288248,51 C28.6813338,51 14.8075883,51 14.8075883,51 C6.08629876,51 3.3639337,47.8674693 2.0242024,45.3619242 C0.684471095,42.8563791 -0.877429867,35.708558 7.0815517,28.1471322 C7.76713253,27.4439507 17.3802395,18.7282399 35.9208725,2 Z" id="Path"></path>
        </g>
    </g>
</svg>